<svg width="341" height="187" viewBox="0 0 341 187" fill="none" xmlns="http://www.w3.org/2000/svg">
<line y1="0.25" x2="341" y2="0.25" stroke="#A6A6A6" stroke-width="0.5"/>
<path d="M263.047 77.439H75.7349V104.942H263.047V77.439Z" fill="#D21E6A"/>
<g opacity="0.5">
<path d="M263.047 77.439H75.7349V104.942H263.047V77.439Z" fill="black"/>
</g>
<path d="M118.944 105.38C119.297 95.4042 111.501 87.0302 101.532 86.6766C91.5616 86.323 83.1929 94.1237 82.8396 104.1C82.4862 114.076 90.2819 122.45 100.252 122.804C110.222 123.157 118.59 115.357 118.944 105.38Z" fill="#263238"/>
<path d="M82.8507 104.448C82.8484 104.464 82.8484 104.481 82.8507 104.498C82.828 109.263 84.6867 113.844 88.0223 117.245C91.3579 120.646 95.9006 122.591 100.662 122.657C105.424 122.724 110.019 120.906 113.448 117.6C116.877 114.293 118.862 109.766 118.973 105.002C118.973 105.002 118.973 104.972 118.973 104.957L82.8507 104.448Z" fill="#263238"/>
<path d="M88.2238 104.574C88.1872 107.083 88.895 109.546 90.2576 111.653C91.6202 113.76 93.5765 115.415 95.8791 116.409C98.1817 117.403 100.727 117.691 103.194 117.238C105.66 116.785 107.937 115.61 109.736 113.861C111.535 112.113 112.776 109.871 113.301 107.417C113.827 104.963 113.613 102.409 112.688 100.076C111.762 97.7441 110.167 95.7388 108.102 94.314C106.038 92.8892 103.598 92.1088 101.09 92.0717C99.425 92.047 97.7713 92.3509 96.2234 92.9658C94.6755 93.5808 93.2639 94.4948 92.0691 95.6558C90.8743 96.8167 89.9197 98.2018 89.2599 99.7319C88.6001 101.262 88.2481 102.907 88.2238 104.574Z" fill="#FAFAFA"/>
<path d="M101.091 92.0716C97.7283 92.0232 94.484 93.3129 92.0712 95.6572C89.6585 98.0015 88.2749 101.209 88.2245 104.573L113.585 104.941C113.633 101.577 112.344 98.331 110.001 95.9176C107.658 93.5041 104.453 92.1207 101.091 92.0716Z" fill="#E0E0E0"/>
<path d="M93.1845 104.645C93.1617 106.174 93.5926 107.675 94.4228 108.959C95.253 110.243 96.4451 111.251 97.8483 111.857C99.2515 112.463 100.803 112.639 102.306 112.362C103.809 112.086 105.196 111.369 106.292 110.303C107.388 109.238 108.143 107.871 108.463 106.375C108.782 104.88 108.651 103.323 108.086 101.902C107.521 100.482 106.548 99.2603 105.289 98.3931C104.031 97.5258 102.543 97.0517 101.015 97.0306C100.001 97.0159 98.9945 97.2013 98.0523 97.576C97.1101 97.9507 96.2508 98.5075 95.5237 99.2145C94.7965 99.9216 94.2156 100.765 93.8143 101.697C93.4129 102.628 93.1989 103.63 93.1845 104.645Z" fill="#263238"/>
<path d="M257.086 105.438C257.455 95.4621 249.672 87.0758 239.703 86.7065C229.734 86.3372 221.353 94.1248 220.984 104.1C220.615 114.076 228.397 122.462 238.367 122.832C248.336 123.201 256.717 115.413 257.086 105.438Z" fill="#263238"/>
<path d="M220.968 104.448C220.968 104.448 220.968 104.483 220.968 104.498C220.945 109.263 222.804 113.844 226.14 117.245C229.475 120.646 234.018 122.591 238.779 122.657C243.541 122.724 248.136 120.906 251.565 117.6C254.994 114.293 256.98 109.766 257.09 105.002C257.09 105.002 257.09 104.972 257.09 104.957L220.968 104.448Z" fill="#263238"/>
<path d="M226.346 104.573C226.309 107.083 227.017 109.547 228.38 111.653C229.743 113.76 231.699 115.415 234.002 116.409C236.305 117.403 238.851 117.691 241.317 117.238C243.784 116.784 246.061 115.608 247.86 113.86C249.659 112.111 250.899 109.868 251.424 107.414C251.949 104.96 251.734 102.405 250.808 100.073C249.882 97.7407 248.286 95.7357 246.221 94.3115C244.156 92.8873 241.715 92.1078 239.207 92.0716C235.845 92.0232 232.601 93.313 230.189 95.6575C227.777 98.002 226.395 101.209 226.346 104.573Z" fill="#FAFAFA"/>
<path d="M239.207 92.0716C235.845 92.0232 232.601 93.313 230.189 95.6575C227.777 98.002 226.395 101.209 226.345 104.573L251.701 104.941C251.749 101.577 250.46 98.331 248.117 95.9176C245.774 93.5041 242.569 92.1207 239.207 92.0716Z" fill="#E0E0E0"/>
<path d="M231.301 104.645C231.278 106.173 231.709 107.675 232.539 108.958C233.369 110.242 234.561 111.251 235.964 111.857C237.367 112.463 238.918 112.639 240.421 112.362C241.923 112.086 243.311 111.37 244.407 110.305C245.503 109.24 246.259 107.873 246.579 106.378C246.899 104.883 246.769 103.327 246.204 101.906C245.64 100.485 244.668 99.2634 243.41 98.3956C242.152 97.5278 240.665 97.0528 239.137 97.0307C238.123 97.0153 237.115 97.2002 236.173 97.5746C235.23 97.949 234.37 98.5057 233.642 99.2128C232.914 99.9199 232.333 100.764 231.931 101.696C231.53 102.628 231.316 103.63 231.301 104.645Z" fill="#263238"/>
<path d="M124.582 61.9634C124.582 61.9634 97.9828 63.9286 88.1277 66.1408C81.1783 67.7029 67.783 70.3887 67.9441 78.824L69.0067 84.8708C69.0067 84.8708 64.0364 87.1434 64.0364 92.9333C64.0364 98.7231 62.8227 107.723 74.4202 108.076C76.3338 108.136 79.9596 108.076 79.9596 108.076C79.9596 108.076 77.7287 83.3591 100.43 82.6335C123.514 81.8978 121.983 107.829 121.983 107.829H218.354C218.354 107.829 214.396 82.5428 239.253 82.5075C264.109 82.4722 260.327 107.995 260.327 107.995C260.327 107.995 269.467 108.786 273.723 101.096C277.978 93.4069 276.87 87.9345 276.87 87.9345L276.729 83.0769C276.708 82.2789 276.384 81.519 275.822 80.9517C275.261 80.3845 274.505 80.0525 273.708 80.0233C273.708 80.0233 275.369 67.7835 272.821 65.6671C270.273 63.5507 256.304 50.7718 256.304 50.7718L256.969 50.3535C257.218 50.1954 257.418 49.9701 257.545 49.7036C257.672 49.437 257.722 49.14 257.688 48.8465C257.655 48.5531 257.539 48.275 257.355 48.0442C257.17 47.8135 256.925 47.6393 256.646 47.5417C251.344 45.7176 240.854 42.1097 238.391 41.243C238.021 41.1124 237.635 41.0311 237.243 41.0011C235.773 40.8902 231.608 40.6282 223.964 40.5426C214.648 40.4468 177.665 40.5426 177.665 40.5426C177.665 40.5426 164.939 41.5907 157.844 44.7149C150.416 48.0255 124.582 61.9634 124.582 61.9634Z" fill="#D21E6A"/>
<g opacity="0.4">
<path d="M70.7786 92.2684C69.8118 92.0719 68.3312 92.0517 67.596 92.7068C67.1001 93.2609 66.8258 93.9786 66.8255 94.7224C66.6707 95.7162 66.6929 96.7295 66.891 97.7156C66.9926 98.2085 67.1949 98.6751 67.4852 99.0861C67.7755 99.4971 68.1475 99.8437 68.578 100.104C69.016 100.353 69.5223 100.455 70.0226 100.396C70.5228 100.336 70.9908 100.117 71.3577 99.7715C71.9822 99.1013 72.0527 98.0985 72.0376 97.1764C72.094 95.9447 72.0418 94.7104 71.8815 93.4878C71.8275 93.2191 71.714 92.966 71.5491 92.7471C71.4653 92.6154 71.3521 92.505 71.2184 92.4245C71.0847 92.3441 70.9342 92.2958 70.7786 92.2835" fill="black"/>
</g>
<g opacity="0.6">
<path d="M70.4465 84.896C73.2716 84.896 76.011 84.7398 78.8261 84.5533C78.9972 84.5866 79.174 84.5748 79.3392 84.5191C79.5044 84.4635 79.6524 84.3659 79.7686 84.2359C79.8848 84.1059 79.9654 83.9479 80.0023 83.7774C80.0392 83.607 80.0313 83.4298 79.9793 83.2633C79.9793 81.7516 79.9188 80.0283 78.7707 79.0406C78.0186 78.4924 77.1175 78.1866 76.1873 78.1638C73.8965 77.9229 71.5807 78.1561 69.3839 78.8491L70.4465 84.896Z" fill="#FAFAFA"/>
</g>
<path d="M127.634 107.067C127.634 107.067 127.634 106.987 127.634 106.825C127.634 106.664 127.608 106.422 127.583 106.115C127.553 105.485 127.503 104.568 127.437 103.389C127.372 102.21 127.291 100.758 127.12 99.0803C126.944 97.1823 126.607 95.3027 126.113 93.4618C125.495 91.2379 124.58 89.1074 123.393 87.1278C122.05 84.8424 120.264 82.8483 118.141 81.2624C113.609 78.0223 107.43 76.1881 100.989 76.1075C94.5482 76.0268 88.3995 78.0727 83.9629 81.474C81.8302 83.0507 79.9605 84.9555 78.4235 87.1177C77.0864 88.9996 75.9996 91.0475 75.1905 93.2099C74.5216 94.9984 74.062 96.8585 73.8208 98.7528C73.6332 100.179 73.5775 101.62 73.6546 103.056C73.7097 103.964 73.8207 104.868 73.987 105.762C74.0424 106.064 74.0827 106.296 74.1129 106.457C74.1431 106.619 74.1532 106.699 74.1532 106.699C74.1532 106.699 74.1532 106.619 74.0978 106.463C74.0424 106.306 74.0122 106.069 73.9517 105.767C73.7695 104.874 73.6483 103.97 73.5892 103.061C73.4951 101.621 73.5407 100.174 73.7251 98.7427C73.9573 96.8492 74.4085 94.9891 75.0697 93.1998C75.8799 91.0243 76.9683 88.963 78.3077 87.0673C79.8404 84.8885 81.7103 82.9681 83.8471 81.3783C88.3088 77.9517 94.4828 75.8908 100.969 75.9664C107.455 76.042 113.624 77.8913 118.212 81.1666C120.352 82.7671 122.149 84.7803 123.499 87.0875C124.697 89.0787 125.62 91.223 126.244 93.4618C126.727 95.3121 127.052 97.2001 127.216 99.1056C127.377 100.784 127.442 102.23 127.503 103.414C127.563 104.598 127.588 105.515 127.618 106.145C127.618 106.452 127.618 106.689 127.644 106.856C127.669 107.022 127.634 107.067 127.634 107.067Z" fill="white"/>
<path d="M128.656 107.501C128.656 107.501 128.656 107.436 128.656 107.3C128.656 107.164 128.656 106.962 128.656 106.7C128.656 106.196 128.615 105.385 128.58 104.367C128.525 102.316 128.439 99.3282 128.328 95.5086C128.218 91.689 128.097 87.0632 127.956 81.7571C127.915 80.4335 127.879 79.0646 127.845 77.6503C127.818 76.9335 127.848 76.2156 127.936 75.5037C127.986 75.1459 128.036 74.7831 128.092 74.4203C128.147 74.0575 128.238 73.6947 128.313 73.3268C128.667 71.8359 129.173 70.3854 129.824 68.9983C130.494 67.5408 131.324 66.1618 132.297 64.8865L148.985 54.37L153.492 51.528C155.01 50.5169 156.605 49.6256 158.261 48.8624C159.948 48.0744 161.678 47.3829 163.443 46.7913C164.329 46.484 165.236 46.227 166.142 45.9549C167.049 45.6828 167.98 45.451 168.917 45.2746C172.455 44.5139 176.052 44.0604 179.669 43.9191C183.138 43.7517 186.614 43.7634 190.083 43.9544H190.183L190.158 44.0501L185.666 64.1104V64.1356C184.842 65.4969 184.167 66.9431 183.652 68.449C183.142 69.8783 182.911 71.3922 182.972 72.9086C183.088 74.4203 183.128 75.8463 183.168 77.2522C183.209 78.6581 183.219 80.0287 183.249 81.354C183.325 86.655 183.345 91.2859 183.36 95.0954C183.375 98.9049 183.36 101.903 183.36 103.949C183.36 104.957 183.36 105.748 183.36 106.282C183.36 106.544 183.36 106.741 183.36 106.882C183.36 107.023 183.36 107.083 183.36 107.083C183.36 107.083 183.36 107.013 183.36 106.882C183.36 106.751 183.36 106.544 183.36 106.282C183.36 105.748 183.36 104.967 183.36 103.949C183.36 101.903 183.335 98.9099 183.309 95.0954C183.284 91.2808 183.249 86.6601 183.163 81.354C183.133 80.027 183.103 78.6615 183.073 77.2573C183.032 75.8463 182.992 74.4001 182.871 72.9187C182.803 71.3768 183.036 69.8364 183.556 68.3835C184.066 66.8645 184.742 65.4062 185.57 64.0349V64.0601L190.037 43.9846L190.118 44.0854C186.656 43.8987 183.187 43.8886 179.724 44.0552C176.116 44.2011 172.528 44.6546 168.998 45.4107C168.066 45.6021 167.155 45.8591 166.238 46.0909C165.321 46.3227 164.425 46.5948 163.544 46.9224C161.786 47.5132 160.062 48.2029 158.382 48.9883C156.733 49.7465 155.145 50.6327 153.633 51.6389L149.126 54.4758L132.422 64.9822C131.455 66.2458 130.631 67.6131 129.965 69.0588C129.313 70.4348 128.806 71.8754 128.454 73.3571C127.694 76.2495 128.077 79.1066 128.087 81.7521C128.218 87.0582 128.328 91.684 128.424 95.5035C128.52 99.3231 128.585 102.311 128.636 104.362C128.636 105.37 128.671 106.166 128.686 106.695V107.295C128.679 107.364 128.669 107.433 128.656 107.501Z" fill="#263238"/>
<path d="M189.947 44.5081H190.108H190.571L192.364 44.4627L199.011 44.3317L221.426 43.9487H221.466L221.491 43.979L224.633 47.8288L233.602 58.829L234.609 60.0837C234.938 60.4999 235.22 60.9511 235.45 61.4291C235.869 62.3181 236.097 63.2852 236.119 64.2678C236.14 65.2504 235.956 66.2266 235.576 67.1333C235.219 67.9597 234.881 68.7558 234.569 69.5117C233.265 72.5351 232.202 74.9841 231.472 76.6872L230.621 78.6323C230.525 78.849 230.45 79.0203 230.394 79.1362C230.339 79.2521 230.314 79.3075 230.314 79.3075C230.314 79.3075 230.314 79.2471 230.379 79.1312C230.445 79.0153 230.495 78.8389 230.586 78.6273L231.407 76.6671L234.453 69.4714C235.037 67.9597 236.06 66.3371 235.989 64.3769C235.977 63.3811 235.751 62.3996 235.325 61.4996C235.105 61.0225 234.833 60.5713 234.514 60.1542L233.507 58.9046L224.533 47.9144L221.355 44.0797L221.426 44.115L199.011 44.4375L192.364 44.5181H190.571H189.947V44.5081Z" fill="#263238"/>
<path d="M178.616 74.3145C178.616 74.3145 178.707 74.3145 178.883 74.2742C179.136 74.2294 179.378 74.1334 179.593 73.992C179.933 73.7684 180.187 73.4363 180.313 73.0497C180.393 72.8113 180.425 72.5598 180.409 72.309C180.399 72.0279 180.327 71.7526 180.197 71.5028C180.047 71.2198 179.823 70.9826 179.549 70.8159C179.275 70.6492 178.962 70.5593 178.641 70.5554H176.365H171.168C170.735 70.5563 170.317 70.7164 169.994 71.0053C169.671 71.2942 169.465 71.6918 169.416 72.1225C169.364 72.5334 169.439 72.9504 169.632 73.3168C169.827 73.6618 170.132 73.9314 170.498 74.0827C170.859 74.2081 171.241 74.2561 171.621 74.2238H172.724H174.708H177.584H178.364H178.636C178.546 74.229 178.455 74.229 178.364 74.2238H177.584H174.708H172.724H171.621C171.43 74.2238 171.244 74.2238 171.037 74.2238C170.83 74.2129 170.625 74.1669 170.433 74.0878C170.035 73.9218 169.702 73.6297 169.486 73.2563C169.274 72.8601 169.189 72.4076 169.245 71.9613C169.297 71.4869 169.522 71.0483 169.876 70.7294C170.231 70.4105 170.691 70.2338 171.168 70.2329H176.385H178.667C179.011 70.2422 179.346 70.3433 179.639 70.5258C179.931 70.7083 180.169 70.9655 180.328 71.2709C180.462 71.5389 180.534 71.8333 180.54 72.1326C180.551 72.3959 180.513 72.6589 180.429 72.9086C180.285 73.31 180.01 73.651 179.649 73.8761C179.423 74.0137 179.171 74.1014 178.908 74.1331C178.821 74.2084 178.722 74.2696 178.616 74.3145Z" fill="#263238"/>
<path d="M228.577 74.3139C228.577 74.3139 228.672 74.3139 228.849 74.2736C229.102 74.2278 229.343 74.1319 229.559 73.9914C229.896 73.7649 230.149 73.4338 230.279 73.0491C230.354 72.8098 230.385 72.5587 230.37 72.3083C230.364 72.0273 230.293 71.7513 230.163 71.5021C230.012 71.2198 229.787 70.9832 229.514 70.8167C229.24 70.6501 228.927 70.5597 228.607 70.5548H226.331H221.114C220.68 70.5556 220.263 70.7158 219.939 71.0047C219.616 71.2936 219.411 71.6912 219.361 72.1219C219.309 72.5328 219.385 72.9498 219.578 73.3161C219.772 73.6598 220.075 73.9292 220.439 74.0821C220.799 74.2071 221.182 74.2552 221.562 74.2232H222.67H224.654H227.524H228.305H228.577C228.486 74.2287 228.395 74.2287 228.305 74.2232H227.524H224.654H222.67H221.562C221.371 74.2232 221.184 74.2232 220.983 74.2232C220.775 74.2128 220.571 74.1668 220.378 74.0871C219.98 73.9212 219.648 73.6291 219.432 73.2557C219.217 72.8603 219.132 72.407 219.19 71.9606C219.24 71.4918 219.46 71.0578 219.809 70.7412C220.167 70.4176 220.632 70.2381 221.114 70.2373H226.331H228.607C228.952 70.2457 229.289 70.3464 229.582 70.5289C229.875 70.7114 230.114 70.9692 230.274 71.2753C230.409 71.5425 230.48 71.8376 230.48 72.137C230.496 72.4005 230.458 72.6645 230.37 72.913C230.258 73.2383 230.057 73.5257 229.79 73.7422C229.523 73.9587 229.2 74.0957 228.859 74.1375C228.774 74.2096 228.679 74.269 228.577 74.3139Z" fill="#263238"/>
<path d="M272.378 66.1763H262.382C261.71 66.1749 261.051 66.3578 260.476 66.7052C259.9 67.0526 259.431 67.5511 259.119 68.1465C258.861 68.6379 258.717 69.1814 258.698 69.7363C258.678 70.2912 258.785 70.8433 259.008 71.3513L262.926 80.2603L272.932 80.1596C272.932 80.1596 275.063 68.8671 272.378 66.1763Z" fill="#FAFAFA"/>
<path d="M133.586 64.9163L185.163 63.9639L218.722 63.3491L229.8 56.9546C230.01 56.8321 230.191 56.6666 230.332 56.469C230.473 56.2714 230.57 56.0461 230.618 55.8081C230.665 55.57 230.662 55.3246 230.608 55.0879C230.554 54.8513 230.45 54.6288 230.304 54.4351L223.415 45.3649C223.06 44.8986 222.603 44.52 222.08 44.2579C221.556 43.9958 220.979 43.8574 220.393 43.8532L182.862 43.5508C182.862 43.5508 168.726 42.7295 157.592 48.9678C145.848 55.5336 133.586 64.9163 133.586 64.9163Z" fill="#263238"/>
<path d="M157.214 44.4883C157.214 44.4883 159.802 45.6674 158.12 46.7558C156.438 47.8443 130.312 64.3319 130.312 64.3319L124.305 61.6109C134.945 55.6699 145.687 49.9203 157.214 44.4883Z" fill="#455A64"/>
<path d="M131.154 64.7402L130.998 64.7805L130.519 64.8813L128.686 65.2643C127.095 65.5818 124.784 66.0252 121.918 66.519C116.192 67.5016 108.241 68.6556 99.4031 69.4164C97.194 69.6079 95.0421 69.7759 92.9472 69.9203C90.8623 70.0564 88.848 70.1824 86.9394 70.3587C83.5429 70.5981 80.1779 71.1702 76.893 72.067C74.6871 72.6873 72.5648 73.574 70.573 74.7074C69.8529 75.0853 69.3393 75.4582 68.9767 75.6799L68.5637 75.942C68.5183 75.9731 68.4713 76.0017 68.4227 76.0276L68.5537 75.9269L68.9565 75.6548C69.3141 75.4179 69.8227 75.04 70.5378 74.6469C72.5347 73.4849 74.6699 72.5792 76.893 71.9511C80.1831 71.029 83.5571 70.4382 86.9646 70.1874C88.8782 70.006 90.8925 69.875 92.9774 69.7389C95.0622 69.6029 97.2226 69.4416 99.4283 69.235C108.261 68.4691 116.213 67.3404 121.938 66.383C124.804 65.9093 127.115 65.481 128.717 65.1837L130.555 64.836L131.033 64.7503L131.154 64.7402Z" fill="#263238"/>
<path d="M276.366 87.849C276.366 87.8994 272.932 87.9347 268.692 87.9347C264.452 87.9347 261.017 87.8994 261.017 87.849C261.017 87.7986 264.452 87.7583 268.692 87.7583C272.932 87.7583 276.366 87.7986 276.366 87.849Z" fill="#263238"/>
<path d="M213.495 96.6268C213.495 96.6722 194.097 96.7125 170.187 96.7125C146.277 96.7125 126.853 96.6722 126.853 96.6268C126.853 96.5815 146.251 96.5361 170.187 96.5361C194.122 96.5361 213.495 96.5764 213.495 96.6268Z" fill="#263238"/>
<path d="M77.6589 88.1415C77.6589 88.1868 74.9144 88.2271 71.5353 88.2271C68.1563 88.2271 65.4067 88.1868 65.4067 88.1415C65.4067 88.0961 68.1513 88.0508 71.5353 88.0508C74.9194 88.0508 77.6589 88.0911 77.6589 88.1415Z" fill="#263238"/>
<path d="M256.027 50.439C256.027 50.439 253.725 53.0189 254.632 54.9136C255.538 56.8083 264.89 63.4296 264.89 63.4296L271.678 64.7044L256.027 50.439Z" fill="#455A64"/>
<path d="M191.478 45.8237L189.947 62.3215L217.266 61.5455L228.279 55.1409L221.149 45.8237H191.478Z" fill="#455A64"/>
<path d="M140.052 63.1681C140.052 63.1681 156.534 51.2559 163.041 48.8876C169.315 46.6049 172.584 46.0304 178.481 45.8641C184.116 45.7029 187.545 45.8641 187.545 45.8641L183.189 62.639L140.052 63.1681Z" fill="#455A64"/>
<path d="M137.639 63.2284C137.639 62.7151 137.775 62.2111 138.035 61.7683C138.294 61.3254 138.667 60.9597 139.114 60.7089L142.901 58.5774C143.978 57.974 145.192 57.6566 146.426 57.6553C147.189 57.6544 147.947 57.7752 148.672 58.013C149.461 58.2856 150.148 58.7925 150.641 59.466C151.134 60.1395 151.41 60.9476 151.432 61.7822C151.453 62.3431 151.362 62.9027 151.162 63.4273C150.963 63.9519 150.66 64.4309 150.271 64.8355C149.882 65.2401 149.415 65.562 148.899 65.782C148.383 66.002 147.828 66.1155 147.267 66.1158H140.519C139.755 66.1145 139.022 65.8097 138.482 65.2683C137.942 64.727 137.639 63.9933 137.639 63.2284Z" fill="#D21E6A"/>
<path d="M137.64 63.2274C137.661 63.3475 137.676 63.4685 137.685 63.5902C137.732 63.9439 137.845 64.2857 138.018 64.598C138.29 65.0812 138.693 65.4777 139.181 65.7418C139.484 65.901 139.813 66.0051 140.153 66.0492C140.51 66.0895 140.908 66.0492 141.316 66.0492H147.092C147.639 66.0645 148.184 65.9756 148.698 65.7872C149.243 65.5845 149.738 65.268 150.15 64.8588C150.563 64.4495 150.883 63.9569 151.09 63.4138C151.303 62.8445 151.389 62.2358 151.342 61.63C151.297 61.0321 151.121 60.4514 150.827 59.929C150.533 59.4066 150.128 58.9552 149.64 58.6066C149.166 58.2874 148.634 58.0632 148.074 57.9465C147.537 57.8213 146.988 57.757 146.437 57.755C145.416 57.7531 144.407 57.9696 143.476 58.3899C143.038 58.5864 142.64 58.8333 142.248 59.045L141.12 59.6698L139.181 60.7078C138.692 60.9706 138.289 61.3674 138.018 61.8517C137.847 62.1648 137.734 62.5063 137.685 62.8595C137.65 63.1014 137.65 63.2274 137.64 63.2274C137.628 63.1034 137.628 62.9785 137.64 62.8545C137.68 62.5025 137.784 62.1609 137.947 61.8467C138.212 61.3405 138.62 60.9235 139.12 60.6474L141.049 59.5489L142.172 58.9089C142.565 58.6973 142.958 58.4453 143.406 58.2438C144.353 57.8052 145.384 57.5782 146.427 57.5786C146.992 57.5779 147.554 57.6421 148.104 57.7701C148.684 57.8874 149.236 58.1186 149.726 58.4504C150.237 58.8126 150.661 59.2831 150.969 59.8283C151.277 60.3736 151.462 60.9802 151.508 61.6048C151.557 62.2379 151.467 62.8739 151.247 63.4692C151.026 64.0353 150.687 64.5479 150.253 64.9728C149.819 65.3976 149.299 65.7251 148.729 65.9333C148.195 66.1272 147.629 66.2178 147.062 66.2004H141.286C140.878 66.2004 140.485 66.2004 140.107 66.1651C139.755 66.1125 139.415 66.0001 139.1 65.8325C138.604 65.5516 138.197 65.1358 137.927 64.6332C137.761 64.32 137.657 63.9779 137.62 63.6254C137.616 63.4924 137.623 63.3593 137.64 63.2274Z" fill="#263238"/>
<path d="M264.623 107.234C264.623 107.234 264.623 107.158 264.623 107.002C264.623 106.846 264.648 106.614 264.668 106.317C264.689 106.02 264.724 105.642 264.744 105.198C264.764 104.755 264.779 104.251 264.799 103.686C264.819 103.122 264.799 102.477 264.799 101.777C264.799 101.076 264.749 100.32 264.653 99.5142C264.501 97.6748 264.174 95.8542 263.676 94.0771C263.384 93.0474 263.025 92.0375 262.604 91.0537C262.148 89.986 261.602 88.9593 260.972 87.9849C259.566 85.8387 257.777 83.9699 255.695 82.4722C253.407 80.807 250.853 79.5443 248.141 78.7383C245.213 77.9048 242.18 77.5009 239.137 77.539C236.089 77.5071 233.055 77.9491 230.143 78.8491C228.765 79.2841 227.427 79.8371 226.144 80.5019C224.922 81.1518 223.761 81.9107 222.675 82.7695C220.657 84.354 218.859 86.1993 217.327 88.257C216.655 89.2038 216.061 90.203 215.549 91.2451C215.085 92.2108 214.674 93.2017 214.32 94.2131C213.236 97.2627 212.575 100.447 212.356 103.676C212.301 104.82 212.311 105.692 212.356 106.317C212.356 106.614 212.387 106.821 212.397 107.002C212.407 107.184 212.397 107.234 212.397 107.234C212.392 107.157 212.392 107.079 212.397 107.002C212.397 106.841 212.361 106.614 212.336 106.317C212.291 105.436 212.291 104.553 212.336 103.671C212.52 100.427 213.159 97.2242 214.235 94.1577C214.587 93.1397 214.995 92.1421 215.458 91.1696C215.967 90.1137 216.564 89.1024 217.241 88.1461C218.774 86.0676 220.578 84.2035 222.604 82.6032C223.697 81.7367 224.865 80.9694 226.094 80.3105C227.387 79.6416 228.735 79.0853 230.123 78.6476C233.037 77.7482 236.072 77.3063 239.122 77.3374C242.186 77.2991 245.239 77.7064 248.186 78.5468C250.922 79.36 253.499 80.6347 255.805 82.316C256.875 83.1009 257.874 83.9777 258.792 84.9363C259.663 85.835 260.439 86.8212 261.108 87.8791C261.743 88.8599 262.289 89.8953 262.74 90.973C263.167 91.9634 263.525 92.982 263.812 94.0216C264.304 95.8062 264.624 97.6335 264.769 99.4789C264.86 100.29 264.855 101.051 264.895 101.751C264.935 102.452 264.895 103.087 264.895 103.661C264.895 104.236 264.845 104.745 264.83 105.173C264.814 105.601 264.759 105.989 264.734 106.287C264.709 106.584 264.689 106.791 264.673 106.972C264.658 107.153 264.623 107.234 264.623 107.234Z" fill="white"/>
<path d="M182.474 64.9155H182.393H182.167H181.285L178.047 64.976C175.313 65.0263 171.536 65.1271 167.366 65.238C163.197 65.3488 159.415 65.4345 156.675 65.4547C155.311 65.4547 154.203 65.4547 153.437 65.4547L156.675 65.3942C159.41 65.3438 163.187 65.243 167.361 65.1271C171.536 65.0112 175.308 64.9356 178.047 64.9155C179.412 64.9155 180.52 64.9155 181.285 64.9155H182.167H182.393C182.449 64.9054 182.474 64.9104 182.474 64.9155Z" fill="white"/>
<path d="M177.997 69.995C176.026 70.1092 174.051 70.1092 172.08 69.995C174.051 69.8741 176.027 69.8741 177.997 69.995Z" fill="white"/>
<path d="M179.08 51.9151C179.08 51.9604 175.429 53.4873 170.882 55.3315C166.334 57.1758 162.633 58.6321 162.613 58.5868C162.593 58.5414 166.269 57.0096 170.816 55.1703C175.364 53.3311 179.065 51.8697 179.08 51.9151Z" fill="white"/>
<path d="M171.642 53.0704C171.642 53.1157 168.162 54.6577 163.831 56.512C159.5 58.3664 155.975 59.8378 155.955 59.7924C155.935 59.7471 159.43 58.2051 163.766 56.3508C168.102 54.4964 171.622 53.025 171.642 53.0704Z" fill="white"/>
<path d="M218.827 51.2759C218.827 51.3213 215.171 52.8531 210.623 54.6924C206.076 56.5316 202.375 57.9929 202.36 57.9476C202.345 57.9022 206.011 56.3704 210.558 54.5311C215.105 52.6919 218.807 51.2306 218.827 51.2759Z" fill="white"/>
<path d="M211.384 52.4302C211.384 52.4756 207.91 54.0175 203.579 55.8719C199.248 57.7262 195.738 59.1976 195.698 59.1523C195.658 59.1069 199.178 57.565 203.508 55.7106C207.839 53.8563 211.349 52.3849 211.384 52.4302Z" fill="white"/>
<path d="M219.542 64.9118C219.542 64.9622 212.24 65.0428 203.236 65.0982C194.232 65.1536 186.925 65.1536 186.925 65.0982C186.925 65.0428 194.222 64.9672 203.236 64.9118C212.25 64.8563 219.542 64.8614 219.542 64.9118Z" fill="white"/>
<path d="M227.629 69.7137C227.629 69.759 225.585 69.8195 223.057 69.8447C220.529 69.8699 218.479 69.8447 218.479 69.7993C218.479 69.754 220.529 69.6885 223.057 69.6683C225.585 69.6482 227.629 69.6633 227.629 69.7137Z" fill="white"/>
<path d="M87.8098 67.2143C87.7442 67.2346 87.6767 67.2481 87.6084 67.2546L87.0343 67.3252C86.7876 67.3554 86.4854 67.3957 86.1329 67.4512C85.7804 67.5066 85.3775 67.557 84.9394 67.6477C84.0581 67.7989 83.0157 68.0307 81.8776 68.338C80.6407 68.6761 79.422 69.078 78.2267 69.5424C76.9576 70.0463 75.7793 70.6006 74.7016 71.1397C73.6239 71.6789 72.7376 72.2332 71.9823 72.722C71.6046 72.9538 71.2722 73.1906 70.9751 73.3871C70.678 73.5837 70.4262 73.7651 70.2247 73.891L69.7564 74.2286C69.7032 74.2698 69.6458 74.3052 69.5852 74.3345C69.5852 74.3345 69.6305 74.2841 69.7312 74.1984C69.832 74.1128 70.0032 73.9868 70.1845 73.8356C70.3658 73.6844 70.6226 73.493 70.9147 73.2864C71.2067 73.0798 71.5341 72.8379 71.9218 72.596C72.6671 72.0921 73.5836 71.5429 74.6311 70.9785C76.9077 69.7645 79.3176 68.8192 81.8122 68.1617C82.9654 67.8644 84.0128 67.6578 84.8991 67.5066C85.3423 67.4209 85.7451 67.3806 86.0976 67.3353C86.4502 67.2899 86.7573 67.2597 87.0091 67.2395L87.5832 67.1992C87.6591 67.1949 87.7352 67.2 87.8098 67.2143Z" fill="white"/>
<path d="M148.095 59.2425C147.993 59.1322 147.886 59.0279 147.772 58.9301C147.448 58.679 147.062 58.5221 146.654 58.4766C146.054 58.439 145.451 58.5125 144.877 58.6932C144.15 58.8761 143.439 59.1188 142.752 59.4189C141.498 59.9609 140.333 60.686 139.292 61.5705C138.491 62.2457 138.068 62.7396 138.043 62.7194C138.124 62.5884 138.218 62.4667 138.325 62.3566C138.605 62.0476 138.901 61.7533 139.212 61.4748C140.816 60.0468 142.748 59.0376 144.837 58.537C145.439 58.3621 146.071 58.3073 146.695 58.3758C147.117 58.4286 147.514 58.6038 147.838 58.8797C147.923 58.9565 147.999 59.0427 148.064 59.1367C148.085 59.1971 148.1 59.2425 148.095 59.2425Z" fill="white"/>
<path d="M256.792 50.3234C256.322 50.4368 255.84 50.4859 255.357 50.4695C254.789 50.4554 254.224 50.3845 253.67 50.2579C252.937 50.0937 252.218 49.873 251.52 49.5978C250.744 49.3005 249.908 48.9276 249.002 48.5446L247.607 47.9803C247.103 47.7888 246.6 47.6225 246.096 47.431C243.841 46.6687 241.542 46.0427 239.212 45.5565C234.978 44.6717 230.678 44.1357 226.356 43.9541C225.525 43.9087 224.774 43.9087 224.115 43.8886H222.428L221.36 43.9138H221.078H221.355L222.428 43.8584L224.12 43.8281C224.779 43.8281 225.535 43.8281 226.366 43.8634C230.698 44.0116 235.009 44.5326 239.252 45.4205C241.59 45.9047 243.894 46.5376 246.151 47.3151C246.655 47.5066 247.159 47.6729 247.662 47.8694L249.067 48.4489C249.964 48.8369 250.789 49.2148 251.585 49.5172C252.276 49.7956 252.986 50.023 253.71 50.1975C254.257 50.3285 254.815 50.4078 255.377 50.4343C255.732 50.4483 256.087 50.4349 256.44 50.394L256.717 50.3637L256.792 50.3234Z" fill="#263238"/>
<path d="M82.8197 104.755C82.8249 104.804 82.8249 104.853 82.8197 104.901C82.8197 105.017 82.8197 105.158 82.8549 105.334C82.8902 105.511 82.8852 105.763 82.9053 106.03C82.9134 106.348 82.9454 106.664 83.001 106.977C83.2716 108.984 83.8723 110.932 84.7786 112.742C85.4038 113.989 86.1674 115.162 87.0548 116.239L87.8253 117.085C87.9613 117.227 88.0872 117.378 88.2282 117.514L88.6663 117.912C88.9684 118.179 89.2555 118.466 89.5778 118.718L90.5849 119.464C92.0345 120.476 93.6242 121.27 95.3035 121.822C98.9325 123.018 102.849 123.018 106.478 121.822C108.155 121.269 109.743 120.475 111.191 119.464L112.199 118.718C112.521 118.466 112.808 118.174 113.11 117.912L113.548 117.514C113.689 117.378 113.815 117.227 113.951 117.085L114.722 116.239C115.608 115.162 116.371 113.989 116.998 112.742C117.903 110.931 118.504 108.984 118.775 106.977C118.829 106.664 118.86 106.347 118.871 106.03C118.871 105.758 118.906 105.526 118.921 105.334L118.957 104.901C118.938 104.898 118.921 104.888 118.91 104.873C118.898 104.858 118.892 104.839 118.894 104.82C118.896 104.801 118.904 104.784 118.918 104.771C118.932 104.758 118.95 104.751 118.969 104.751C118.988 104.751 119.007 104.758 119.02 104.771C119.034 104.784 119.043 104.801 119.045 104.82C119.046 104.839 119.041 104.858 119.029 104.873C119.017 104.888 119.001 104.898 118.982 104.901C118.982 105.012 118.982 105.153 118.982 105.329C118.982 105.506 118.982 105.758 118.957 106.03C118.955 106.35 118.932 106.67 118.886 106.987C118.654 109.016 118.075 110.99 117.174 112.822C116.552 114.089 115.79 115.282 114.903 116.38L114.158 117.247C114.027 117.388 113.901 117.544 113.755 117.68L113.312 118.088C113.009 118.355 112.717 118.653 112.39 118.91L111.383 119.67C109.916 120.703 108.306 121.514 106.604 122.079C102.921 123.295 98.9457 123.295 95.2632 122.079C93.5631 121.513 91.9548 120.702 90.4893 119.67L89.4821 118.91C89.1548 118.653 88.8627 118.355 88.5605 118.088L88.1174 117.68C87.9713 117.544 87.8454 117.388 87.7145 117.247L86.934 116.385C86.0454 115.289 85.2835 114.095 84.6628 112.827C83.7596 110.996 83.1803 109.022 82.9506 106.992C82.905 106.675 82.8814 106.355 82.8801 106.035C82.8801 105.763 82.8801 105.531 82.8801 105.334C82.8801 105.138 82.8801 105.017 82.8801 104.906C82.8519 104.859 82.8315 104.808 82.8197 104.755Z" fill="#455A64"/>
</svg>
